<?xml version="1.0" encoding="utf-8" standalone="no"?>
<!DOCTYPE svg PUBLIC "-//W3C//DTD SVG 1.1//EN"
  "http://www.w3.org/Graphics/SVG/1.1/DTD/svg11.dtd">
<svg xmlns:xlink="http://www.w3.org/1999/xlink" width="720pt" height="432pt" viewBox="0 0 720 432" xmlns="http://www.w3.org/2000/svg" version="1.1">
 <metadata>
  <rdf:RDF xmlns:dc="http://purl.org/dc/elements/1.1/" xmlns:cc="http://creativecommons.org/ns#" xmlns:rdf="http://www.w3.org/1999/02/22-rdf-syntax-ns#">
   <cc:Work>
    <dc:type rdf:resource="http://purl.org/dc/dcmitype/StillImage"/>
    <dc:date>2025-05-11T21:12:18.555677</dc:date>
    <dc:format>image/svg+xml</dc:format>
    <dc:creator>
     <cc:Agent>
      <dc:title>Matplotlib v3.7.5, https://matplotlib.org/</dc:title>
     </cc:Agent>
    </dc:creator>
   </cc:Work>
  </rdf:RDF>
 </metadata>
 <defs>
  <style type="text/css">*{stroke-linejoin: round; stroke-linecap: butt}</style>
 </defs>
 <g id="figure_1">
  <g id="patch_1">
   <path d="M 0 432 
L 720 432 
L 720 0 
L 0 0 
z
" style="fill: #ffffff"/>
  </g>
  <g id="axes_1">
   <g id="patch_2">
    <path d="M 90 384.48 
L 648 384.48 
L 648 51.84 
L 90 51.84 
z
" style="fill: #ffffff"/>
   </g>
   <g id="matplotlib.axis_1">
    <g id="xtick_1">
     <g id="line2d_1">
      <defs>
       <path id="m6623297893" d="M 0 0 
L 0 3.5 
" style="stroke: #000000; stroke-width: 0.8"/>
      </defs>
      <g>
       <use xlink:href="#m6623297893" x="112.814527" y="384.48" style="stroke: #000000; stroke-width: 0.8"/>
      </g>
     </g>
     <g id="text_1">
      <!-- 0 -->
      <g transform="translate(109.633277 399.078438) scale(0.1 -0.1)">
       <defs>
        <path id="DejaVuSans-30" d="M 2034 4250 
Q 1547 4250 1301 3770 
Q 1056 3291 1056 2328 
Q 1056 1369 1301 889 
Q 1547 409 2034 409 
Q 2525 409 2770 889 
Q 3016 1369 3016 2328 
Q 3016 3291 2770 3770 
Q 2525 4250 2034 4250 
z
M 2034 4750 
Q 2819 4750 3233 4129 
Q 3647 3509 3647 2328 
Q 3647 1150 3233 529 
Q 2819 -91 2034 -91 
Q 1250 -91 836 529 
Q 422 1150 422 2328 
Q 422 3509 836 4129 
Q 1250 4750 2034 4750 
z
" transform="scale(0.015625)"/>
       </defs>
       <use xlink:href="#DejaVuSans-30"/>
      </g>
     </g>
    </g>
    <g id="xtick_2">
     <g id="line2d_2">
      <g>
       <use xlink:href="#m6623297893" x="176.542257" y="384.48" style="stroke: #000000; stroke-width: 0.8"/>
      </g>
     </g>
     <g id="text_2">
      <!-- 25 -->
      <g transform="translate(170.179757 399.078438) scale(0.1 -0.1)">
       <defs>
        <path id="DejaVuSans-32" d="M 1228 531 
L 3431 531 
L 3431 0 
L 469 0 
L 469 531 
Q 828 903 1448 1529 
Q 2069 2156 2228 2338 
Q 2531 2678 2651 2914 
Q 2772 3150 2772 3378 
Q 2772 3750 2511 3984 
Q 2250 4219 1831 4219 
Q 1534 4219 1204 4116 
Q 875 4013 500 3803 
L 500 4441 
Q 881 4594 1212 4672 
Q 1544 4750 1819 4750 
Q 2544 4750 2975 4387 
Q 3406 4025 3406 3419 
Q 3406 3131 3298 2873 
Q 3191 2616 2906 2266 
Q 2828 2175 2409 1742 
Q 1991 1309 1228 531 
z
" transform="scale(0.015625)"/>
        <path id="DejaVuSans-35" d="M 691 4666 
L 3169 4666 
L 3169 4134 
L 1269 4134 
L 1269 2991 
Q 1406 3038 1543 3061 
Q 1681 3084 1819 3084 
Q 2600 3084 3056 2656 
Q 3513 2228 3513 1497 
Q 3513 744 3044 326 
Q 2575 -91 1722 -91 
Q 1428 -91 1123 -41 
Q 819 9 494 109 
L 494 744 
Q 775 591 1075 516 
Q 1375 441 1709 441 
Q 2250 441 2565 725 
Q 2881 1009 2881 1497 
Q 2881 1984 2565 2268 
Q 2250 2553 1709 2553 
Q 1456 2553 1204 2497 
Q 953 2441 691 2322 
L 691 4666 
z
" transform="scale(0.015625)"/>
       </defs>
       <use xlink:href="#DejaVuSans-32"/>
       <use xlink:href="#DejaVuSans-35" x="63.623047"/>
      </g>
     </g>
    </g>
    <g id="xtick_3">
     <g id="line2d_3">
      <g>
       <use xlink:href="#m6623297893" x="240.269986" y="384.48" style="stroke: #000000; stroke-width: 0.8"/>
      </g>
     </g>
     <g id="text_3">
      <!-- 50 -->
      <g transform="translate(233.907486 399.078438) scale(0.1 -0.1)">
       <use xlink:href="#DejaVuSans-35"/>
       <use xlink:href="#DejaVuSans-30" x="63.623047"/>
      </g>
     </g>
    </g>
    <g id="xtick_4">
     <g id="line2d_4">
      <g>
       <use xlink:href="#m6623297893" x="303.997716" y="384.48" style="stroke: #000000; stroke-width: 0.8"/>
      </g>
     </g>
     <g id="text_4">
      <!-- 75 -->
      <g transform="translate(297.635216 399.078438) scale(0.1 -0.1)">
       <defs>
        <path id="DejaVuSans-37" d="M 525 4666 
L 3525 4666 
L 3525 4397 
L 1831 0 
L 1172 0 
L 2766 4134 
L 525 4134 
L 525 4666 
z
" transform="scale(0.015625)"/>
       </defs>
       <use xlink:href="#DejaVuSans-37"/>
       <use xlink:href="#DejaVuSans-35" x="63.623047"/>
      </g>
     </g>
    </g>
    <g id="xtick_5">
     <g id="line2d_5">
      <g>
       <use xlink:href="#m6623297893" x="367.725445" y="384.48" style="stroke: #000000; stroke-width: 0.8"/>
      </g>
     </g>
     <g id="text_5">
      <!-- 100 -->
      <g transform="translate(358.181695 399.078438) scale(0.1 -0.1)">
       <defs>
        <path id="DejaVuSans-31" d="M 794 531 
L 1825 531 
L 1825 4091 
L 703 3866 
L 703 4441 
L 1819 4666 
L 2450 4666 
L 2450 531 
L 3481 531 
L 3481 0 
L 794 0 
L 794 531 
z
" transform="scale(0.015625)"/>
       </defs>
       <use xlink:href="#DejaVuSans-31"/>
       <use xlink:href="#DejaVuSans-30" x="63.623047"/>
       <use xlink:href="#DejaVuSans-30" x="127.246094"/>
      </g>
     </g>
    </g>
    <g id="xtick_6">
     <g id="line2d_6">
      <g>
       <use xlink:href="#m6623297893" x="431.453175" y="384.48" style="stroke: #000000; stroke-width: 0.8"/>
      </g>
     </g>
     <g id="text_6">
      <!-- 125 -->
      <g transform="translate(421.909425 399.078438) scale(0.1 -0.1)">
       <use xlink:href="#DejaVuSans-31"/>
       <use xlink:href="#DejaVuSans-32" x="63.623047"/>
       <use xlink:href="#DejaVuSans-35" x="127.246094"/>
      </g>
     </g>
    </g>
    <g id="xtick_7">
     <g id="line2d_7">
      <g>
       <use xlink:href="#m6623297893" x="495.180905" y="384.48" style="stroke: #000000; stroke-width: 0.8"/>
      </g>
     </g>
     <g id="text_7">
      <!-- 150 -->
      <g transform="translate(485.637155 399.078438) scale(0.1 -0.1)">
       <use xlink:href="#DejaVuSans-31"/>
       <use xlink:href="#DejaVuSans-35" x="63.623047"/>
       <use xlink:href="#DejaVuSans-30" x="127.246094"/>
      </g>
     </g>
    </g>
    <g id="xtick_8">
     <g id="line2d_8">
      <g>
       <use xlink:href="#m6623297893" x="558.908634" y="384.48" style="stroke: #000000; stroke-width: 0.8"/>
      </g>
     </g>
     <g id="text_8">
      <!-- 175 -->
      <g transform="translate(549.364884 399.078438) scale(0.1 -0.1)">
       <use xlink:href="#DejaVuSans-31"/>
       <use xlink:href="#DejaVuSans-37" x="63.623047"/>
       <use xlink:href="#DejaVuSans-35" x="127.246094"/>
      </g>
     </g>
    </g>
    <g id="xtick_9">
     <g id="line2d_9">
      <g>
       <use xlink:href="#m6623297893" x="622.636364" y="384.48" style="stroke: #000000; stroke-width: 0.8"/>
      </g>
     </g>
     <g id="text_9">
      <!-- 200 -->
      <g transform="translate(613.092614 399.078438) scale(0.1 -0.1)">
       <use xlink:href="#DejaVuSans-32"/>
       <use xlink:href="#DejaVuSans-30" x="63.623047"/>
       <use xlink:href="#DejaVuSans-30" x="127.246094"/>
      </g>
     </g>
    </g>
    <g id="text_10">
     <!-- Epochs -->
     <g transform="translate(351.084375 412.756563) scale(0.1 -0.1)">
      <defs>
       <path id="DejaVuSans-45" d="M 628 4666 
L 3578 4666 
L 3578 4134 
L 1259 4134 
L 1259 2753 
L 3481 2753 
L 3481 2222 
L 1259 2222 
L 1259 531 
L 3634 531 
L 3634 0 
L 628 0 
L 628 4666 
z
" transform="scale(0.015625)"/>
       <path id="DejaVuSans-70" d="M 1159 525 
L 1159 -1331 
L 581 -1331 
L 581 3500 
L 1159 3500 
L 1159 2969 
Q 1341 3281 1617 3432 
Q 1894 3584 2278 3584 
Q 2916 3584 3314 3078 
Q 3713 2572 3713 1747 
Q 3713 922 3314 415 
Q 2916 -91 2278 -91 
Q 1894 -91 1617 61 
Q 1341 213 1159 525 
z
M 3116 1747 
Q 3116 2381 2855 2742 
Q 2594 3103 2138 3103 
Q 1681 3103 1420 2742 
Q 1159 2381 1159 1747 
Q 1159 1113 1420 752 
Q 1681 391 2138 391 
Q 2594 391 2855 752 
Q 3116 1113 3116 1747 
z
" transform="scale(0.015625)"/>
       <path id="DejaVuSans-6f" d="M 1959 3097 
Q 1497 3097 1228 2736 
Q 959 2375 959 1747 
Q 959 1119 1226 758 
Q 1494 397 1959 397 
Q 2419 397 2687 759 
Q 2956 1122 2956 1747 
Q 2956 2369 2687 2733 
Q 2419 3097 1959 3097 
z
M 1959 3584 
Q 2709 3584 3137 3096 
Q 3566 2609 3566 1747 
Q 3566 888 3137 398 
Q 2709 -91 1959 -91 
Q 1206 -91 779 398 
Q 353 888 353 1747 
Q 353 2609 779 3096 
Q 1206 3584 1959 3584 
z
" transform="scale(0.015625)"/>
       <path id="DejaVuSans-63" d="M 3122 3366 
L 3122 2828 
Q 2878 2963 2633 3030 
Q 2388 3097 2138 3097 
Q 1578 3097 1268 2742 
Q 959 2388 959 1747 
Q 959 1106 1268 751 
Q 1578 397 2138 397 
Q 2388 397 2633 464 
Q 2878 531 3122 666 
L 3122 134 
Q 2881 22 2623 -34 
Q 2366 -91 2075 -91 
Q 1284 -91 818 406 
Q 353 903 353 1747 
Q 353 2603 823 3093 
Q 1294 3584 2113 3584 
Q 2378 3584 2631 3529 
Q 2884 3475 3122 3366 
z
" transform="scale(0.015625)"/>
       <path id="DejaVuSans-68" d="M 3513 2113 
L 3513 0 
L 2938 0 
L 2938 2094 
Q 2938 2591 2744 2837 
Q 2550 3084 2163 3084 
Q 1697 3084 1428 2787 
Q 1159 2491 1159 1978 
L 1159 0 
L 581 0 
L 581 4863 
L 1159 4863 
L 1159 2956 
Q 1366 3272 1645 3428 
Q 1925 3584 2291 3584 
Q 2894 3584 3203 3211 
Q 3513 2838 3513 2113 
z
" transform="scale(0.015625)"/>
       <path id="DejaVuSans-73" d="M 2834 3397 
L 2834 2853 
Q 2591 2978 2328 3040 
Q 2066 3103 1784 3103 
Q 1356 3103 1142 2972 
Q 928 2841 928 2578 
Q 928 2378 1081 2264 
Q 1234 2150 1697 2047 
L 1894 2003 
Q 2506 1872 2764 1633 
Q 3022 1394 3022 966 
Q 3022 478 2636 193 
Q 2250 -91 1575 -91 
Q 1294 -91 989 -36 
Q 684 19 347 128 
L 347 722 
Q 666 556 975 473 
Q 1284 391 1588 391 
Q 1994 391 2212 530 
Q 2431 669 2431 922 
Q 2431 1156 2273 1281 
Q 2116 1406 1581 1522 
L 1381 1569 
Q 847 1681 609 1914 
Q 372 2147 372 2553 
Q 372 3047 722 3315 
Q 1072 3584 1716 3584 
Q 2034 3584 2315 3537 
Q 2597 3491 2834 3397 
z
" transform="scale(0.015625)"/>
      </defs>
      <use xlink:href="#DejaVuSans-45"/>
      <use xlink:href="#DejaVuSans-70" x="63.183594"/>
      <use xlink:href="#DejaVuSans-6f" x="126.660156"/>
      <use xlink:href="#DejaVuSans-63" x="187.841797"/>
      <use xlink:href="#DejaVuSans-68" x="242.822266"/>
      <use xlink:href="#DejaVuSans-73" x="306.201172"/>
     </g>
    </g>
   </g>
   <g id="matplotlib.axis_2">
    <g id="ytick_1">
     <g id="line2d_10">
      <defs>
       <path id="mda7c385745" d="M 0 0 
L -3.5 0 
" style="stroke: #000000; stroke-width: 0.8"/>
      </defs>
      <g>
       <use xlink:href="#mda7c385745" x="90" y="370.839993" style="stroke: #000000; stroke-width: 0.8"/>
      </g>
     </g>
     <g id="text_11">
      <!-- 0.2 -->
      <g transform="translate(67.096875 374.639212) scale(0.1 -0.1)">
       <defs>
        <path id="DejaVuSans-2e" d="M 684 794 
L 1344 794 
L 1344 0 
L 684 0 
L 684 794 
z
" transform="scale(0.015625)"/>
       </defs>
       <use xlink:href="#DejaVuSans-30"/>
       <use xlink:href="#DejaVuSans-2e" x="63.623047"/>
       <use xlink:href="#DejaVuSans-32" x="95.410156"/>
      </g>
     </g>
    </g>
    <g id="ytick_2">
     <g id="line2d_11">
      <g>
       <use xlink:href="#mda7c385745" x="90" y="314.401491" style="stroke: #000000; stroke-width: 0.8"/>
      </g>
     </g>
     <g id="text_12">
      <!-- 0.4 -->
      <g transform="translate(67.096875 318.20071) scale(0.1 -0.1)">
       <defs>
        <path id="DejaVuSans-34" d="M 2419 4116 
L 825 1625 
L 2419 1625 
L 2419 4116 
z
M 2253 4666 
L 3047 4666 
L 3047 1625 
L 3713 1625 
L 3713 1100 
L 3047 1100 
L 3047 0 
L 2419 0 
L 2419 1100 
L 313 1100 
L 313 1709 
L 2253 4666 
z
" transform="scale(0.015625)"/>
       </defs>
       <use xlink:href="#DejaVuSans-30"/>
       <use xlink:href="#DejaVuSans-2e" x="63.623047"/>
       <use xlink:href="#DejaVuSans-34" x="95.410156"/>
      </g>
     </g>
    </g>
    <g id="ytick_3">
     <g id="line2d_12">
      <g>
       <use xlink:href="#mda7c385745" x="90" y="257.962989" style="stroke: #000000; stroke-width: 0.8"/>
      </g>
     </g>
     <g id="text_13">
      <!-- 0.6 -->
      <g transform="translate(67.096875 261.762208) scale(0.1 -0.1)">
       <defs>
        <path id="DejaVuSans-36" d="M 2113 2584 
Q 1688 2584 1439 2293 
Q 1191 2003 1191 1497 
Q 1191 994 1439 701 
Q 1688 409 2113 409 
Q 2538 409 2786 701 
Q 3034 994 3034 1497 
Q 3034 2003 2786 2293 
Q 2538 2584 2113 2584 
z
M 3366 4563 
L 3366 3988 
Q 3128 4100 2886 4159 
Q 2644 4219 2406 4219 
Q 1781 4219 1451 3797 
Q 1122 3375 1075 2522 
Q 1259 2794 1537 2939 
Q 1816 3084 2150 3084 
Q 2853 3084 3261 2657 
Q 3669 2231 3669 1497 
Q 3669 778 3244 343 
Q 2819 -91 2113 -91 
Q 1303 -91 875 529 
Q 447 1150 447 2328 
Q 447 3434 972 4092 
Q 1497 4750 2381 4750 
Q 2619 4750 2861 4703 
Q 3103 4656 3366 4563 
z
" transform="scale(0.015625)"/>
       </defs>
       <use xlink:href="#DejaVuSans-30"/>
       <use xlink:href="#DejaVuSans-2e" x="63.623047"/>
       <use xlink:href="#DejaVuSans-36" x="95.410156"/>
      </g>
     </g>
    </g>
    <g id="ytick_4">
     <g id="line2d_13">
      <g>
       <use xlink:href="#mda7c385745" x="90" y="201.524487" style="stroke: #000000; stroke-width: 0.8"/>
      </g>
     </g>
     <g id="text_14">
      <!-- 0.8 -->
      <g transform="translate(67.096875 205.323705) scale(0.1 -0.1)">
       <defs>
        <path id="DejaVuSans-38" d="M 2034 2216 
Q 1584 2216 1326 1975 
Q 1069 1734 1069 1313 
Q 1069 891 1326 650 
Q 1584 409 2034 409 
Q 2484 409 2743 651 
Q 3003 894 3003 1313 
Q 3003 1734 2745 1975 
Q 2488 2216 2034 2216 
z
M 1403 2484 
Q 997 2584 770 2862 
Q 544 3141 544 3541 
Q 544 4100 942 4425 
Q 1341 4750 2034 4750 
Q 2731 4750 3128 4425 
Q 3525 4100 3525 3541 
Q 3525 3141 3298 2862 
Q 3072 2584 2669 2484 
Q 3125 2378 3379 2068 
Q 3634 1759 3634 1313 
Q 3634 634 3220 271 
Q 2806 -91 2034 -91 
Q 1263 -91 848 271 
Q 434 634 434 1313 
Q 434 1759 690 2068 
Q 947 2378 1403 2484 
z
M 1172 3481 
Q 1172 3119 1398 2916 
Q 1625 2713 2034 2713 
Q 2441 2713 2670 2916 
Q 2900 3119 2900 3481 
Q 2900 3844 2670 4047 
Q 2441 4250 2034 4250 
Q 1625 4250 1398 4047 
Q 1172 3844 1172 3481 
z
" transform="scale(0.015625)"/>
       </defs>
       <use xlink:href="#DejaVuSans-30"/>
       <use xlink:href="#DejaVuSans-2e" x="63.623047"/>
       <use xlink:href="#DejaVuSans-38" x="95.410156"/>
      </g>
     </g>
    </g>
    <g id="ytick_5">
     <g id="line2d_14">
      <g>
       <use xlink:href="#mda7c385745" x="90" y="145.085985" style="stroke: #000000; stroke-width: 0.8"/>
      </g>
     </g>
     <g id="text_15">
      <!-- 1.0 -->
      <g transform="translate(67.096875 148.885203) scale(0.1 -0.1)">
       <use xlink:href="#DejaVuSans-31"/>
       <use xlink:href="#DejaVuSans-2e" x="63.623047"/>
       <use xlink:href="#DejaVuSans-30" x="95.410156"/>
      </g>
     </g>
    </g>
    <g id="ytick_6">
     <g id="line2d_15">
      <g>
       <use xlink:href="#mda7c385745" x="90" y="88.647483" style="stroke: #000000; stroke-width: 0.8"/>
      </g>
     </g>
     <g id="text_16">
      <!-- 1.2 -->
      <g transform="translate(67.096875 92.446701) scale(0.1 -0.1)">
       <use xlink:href="#DejaVuSans-31"/>
       <use xlink:href="#DejaVuSans-2e" x="63.623047"/>
       <use xlink:href="#DejaVuSans-32" x="95.410156"/>
      </g>
     </g>
    </g>
    <g id="text_17">
     <!-- Loss -->
     <g transform="translate(61.017187 229.127187) rotate(-90) scale(0.1 -0.1)">
      <defs>
       <path id="DejaVuSans-4c" d="M 628 4666 
L 1259 4666 
L 1259 531 
L 3531 531 
L 3531 0 
L 628 0 
L 628 4666 
z
" transform="scale(0.015625)"/>
      </defs>
      <use xlink:href="#DejaVuSans-4c"/>
      <use xlink:href="#DejaVuSans-6f" x="53.962891"/>
      <use xlink:href="#DejaVuSans-73" x="115.144531"/>
      <use xlink:href="#DejaVuSans-73" x="167.244141"/>
     </g>
    </g>
   </g>
   <g id="line2d_16">
    <path d="M 115.363636 66.96 
L 120.461855 161.56891 
L 123.010964 165.51046 
L 125.560073 172.513008 
L 128.109182 186.853947 
L 130.658291 173.885443 
L 133.207401 196.052941 
L 135.75651 189.17949 
L 138.305619 186.055704 
L 140.854728 196.018462 
L 143.403837 192.294016 
L 145.952947 200.724796 
L 148.502056 202.956508 
L 151.051165 202.164036 
L 153.600274 210.190861 
L 156.149383 207.449745 
L 158.698492 213.098915 
L 161.247602 205.407829 
L 163.796711 198.575131 
L 166.34582 211.53782 
L 168.894929 213.410147 
L 171.444038 201.231557 
L 173.993148 218.969352 
L 176.542257 208.321088 
L 179.091366 218.717644 
L 181.640475 220.374416 
L 184.189584 222.899708 
L 186.738693 212.999632 
L 189.287803 223.987894 
L 191.836912 230.868039 
L 194.386021 228.20572 
L 196.93513 219.801255 
L 199.484239 222.733 
L 202.033349 223.45634 
L 204.582458 216.85362 
L 207.131567 233.169195 
L 209.680676 227.886926 
L 212.229785 231.028973 
L 214.778894 233.671403 
L 217.328004 236.811771 
L 219.877113 232.321199 
L 222.426222 236.294185 
L 224.975331 227.026461 
L 227.52444 228.71751 
L 230.07355 233.450338 
L 232.622659 226.364198 
L 235.171768 230.69111 
L 237.720877 233.195338 
L 240.269986 233.096322 
L 242.819095 237.353188 
L 245.368205 232.7264 
L 247.917314 236.631999 
L 250.466423 238.482059 
L 253.015532 240.179157 
L 255.564641 240.091831 
L 258.113751 238.286031 
L 260.66286 237.737429 
L 263.211969 242.575332 
L 265.761078 243.616272 
L 268.310187 244.524819 
L 270.859296 246.001109 
L 273.408406 243.954552 
L 275.957515 238.08632 
L 278.506624 243.136052 
L 281.055733 245.319272 
L 283.604842 246.864029 
L 286.153952 244.961247 
L 288.703061 242.574067 
L 291.25217 246.490621 
L 293.801279 248.710167 
L 296.350388 242.030346 
L 298.899497 242.89476 
L 301.448607 244.122619 
L 303.997716 247.059473 
L 306.546825 243.422674 
L 309.095934 244.639211 
L 311.645043 247.03246 
L 314.194153 245.526365 
L 316.743262 248.866672 
L 319.292371 248.551082 
L 321.84148 248.010448 
L 324.390589 250.838361 
L 326.939698 248.446723 
L 329.488808 247.471535 
L 332.037917 249.907912 
L 334.587026 250.994895 
L 337.136135 248.723882 
L 339.685244 250.475889 
L 342.234354 252.460967 
L 344.783463 251.854346 
L 347.332572 251.767682 
L 349.881681 249.988528 
L 352.43079 250.513485 
L 354.979899 249.47067 
L 357.529009 252.196306 
L 360.078118 254.319375 
L 362.627227 254.289375 
L 365.176336 254.438105 
L 367.725445 251.939773 
L 370.274555 252.435008 
L 372.823664 254.970855 
L 375.372773 254.141847 
L 377.921882 255.053412 
L 380.470991 255.033033 
L 383.020101 254.620042 
L 385.56921 255.44587 
L 388.118319 254.150327 
L 390.667428 251.011678 
L 393.216537 253.705161 
L 395.765646 255.259641 
L 398.314756 254.793754 
L 400.863865 256.098576 
L 403.412974 255.633382 
L 405.962083 256.938717 
L 408.511192 257.888592 
L 411.060302 259.728278 
L 413.609411 259.581764 
L 418.707629 261.002488 
L 421.256738 260.206386 
L 423.805847 258.479756 
L 426.354957 259.725644 
L 428.904066 257.715195 
L 431.453175 257.922101 
L 434.002284 260.069665 
L 436.551393 260.522281 
L 439.100503 259.188863 
L 441.649612 259.112339 
L 444.198721 261.26506 
L 446.74783 260.826766 
L 449.296939 261.279065 
L 451.846048 262.214635 
L 454.395158 260.75675 
L 459.493376 261.304445 
L 462.042485 261.414841 
L 464.591594 262.617043 
L 467.140704 263.298239 
L 469.689813 260.948459 
L 472.238922 260.295529 
L 474.788031 262.372957 
L 477.33714 259.022702 
L 479.886249 260.967062 
L 482.435359 258.169802 
L 484.984468 255.645033 
L 487.533577 258.949774 
L 490.082686 260.167241 
L 492.631795 260.42014 
L 495.180905 261.452634 
L 497.730014 263.250331 
L 500.279123 264.778907 
L 502.828232 262.960236 
L 505.377341 264.079808 
L 507.92645 262.841802 
L 510.47556 263.682841 
L 513.024669 264.043294 
L 515.573778 265.059988 
L 518.122887 266.346837 
L 520.671996 265.423389 
L 523.221106 267.302433 
L 525.770215 266.972551 
L 528.319324 266.267915 
L 530.868433 267.526753 
L 533.417542 266.603823 
L 535.966651 264.964941 
L 538.515761 267.05852 
L 543.613979 266.34749 
L 546.163088 266.967038 
L 548.712197 268.638115 
L 551.261307 266.407432 
L 553.810416 269.236482 
L 556.359525 267.54397 
L 558.908634 268.052634 
L 561.457743 269.325827 
L 564.006852 268.586244 
L 566.555962 268.478714 
L 569.105071 269.821406 
L 576.752398 269.412361 
L 579.301508 270.066606 
L 581.850617 270.545052 
L 584.399726 269.760308 
L 586.948835 269.868228 
L 589.497944 270.77187 
L 594.596163 270.372242 
L 597.145272 271.222976 
L 599.694381 270.738379 
L 602.24349 271.28395 
L 607.341709 271.765231 
L 609.890818 271.404341 
L 612.439927 271.952028 
L 614.989036 271.786819 
L 617.538145 272.93153 
L 620.087254 272.181033 
L 622.636364 272.506706 
L 622.636364 272.506706 
" clip-path="url(#pe38568b1de)" style="fill: none; stroke: #1f77b4; stroke-width: 1.5; stroke-linecap: square"/>
   </g>
   <g id="line2d_17">
    <path d="M 115.363636 238.609459 
L 117.912746 268.063497 
L 120.461855 305.526604 
L 123.010964 307.039408 
L 125.560073 313.296134 
L 128.109182 325.282413 
L 130.658291 314.005649 
L 133.207401 328.809246 
L 135.75651 330.071306 
L 138.305619 322.632462 
L 140.854728 331.720028 
L 143.403837 327.406926 
L 145.952947 334.895887 
L 148.502056 338.95158 
L 151.051165 331.670888 
L 153.600274 339.500862 
L 156.149383 334.824854 
L 158.698492 341.946079 
L 161.247602 336.234779 
L 163.796711 328.349102 
L 166.34582 345.240471 
L 168.894929 337.732945 
L 171.444038 327.909452 
L 173.993148 342.32737 
L 176.542257 337.090941 
L 179.091366 339.757685 
L 184.189584 344.532863 
L 186.738693 337.53155 
L 189.287803 347.406083 
L 191.836912 346.537635 
L 194.386021 342.270691 
L 196.93513 341.695214 
L 199.484239 344.650801 
L 202.033349 340.023943 
L 204.582458 336.129513 
L 207.131567 349.758179 
L 209.680676 342.265449 
L 212.229785 343.397329 
L 214.778894 346.296955 
L 217.328004 348.923692 
L 219.877113 345.339213 
L 222.426222 348.061493 
L 224.975331 345.090655 
L 227.52444 343.774644 
L 230.07355 345.345173 
L 232.622659 343.470302 
L 235.171768 345.819569 
L 237.720877 347.118498 
L 240.269986 346.76476 
L 242.819095 347.52218 
L 245.368205 344.213797 
L 247.917314 347.840666 
L 250.466423 349.873382 
L 253.015532 349.47075 
L 255.564641 350.254626 
L 258.113751 348.375716 
L 260.66286 347.361445 
L 263.211969 349.756303 
L 265.761078 351.793155 
L 268.310187 351.290826 
L 270.859296 352.737497 
L 273.408406 351.615559 
L 275.957515 347.64227 
L 278.506624 351.368432 
L 281.055733 353.379642 
L 283.604842 352.062758 
L 286.153952 353.203835 
L 288.703061 350.53725 
L 291.25217 352.680165 
L 293.801279 355.169652 
L 296.350388 349.760619 
L 298.899497 352.349675 
L 301.448607 351.93734 
L 303.997716 354.037945 
L 306.546825 351.279959 
L 309.095934 352.557986 
L 311.645043 352.972329 
L 314.194153 351.909447 
L 316.743262 353.472173 
L 319.292371 354.424232 
L 321.84148 352.602598 
L 324.390589 356.53743 
L 326.939698 353.561942 
L 329.488808 353.516172 
L 332.037917 354.784508 
L 334.587026 355.103002 
L 337.136135 354.690181 
L 339.685244 354.639574 
L 342.234354 356.046436 
L 344.783463 356.348627 
L 347.332572 355.529185 
L 349.881681 355.684008 
L 352.43079 355.095757 
L 354.979899 355.161519 
L 357.529009 355.941069 
L 360.078118 356.957651 
L 362.627227 357.850651 
L 365.176336 357.866934 
L 367.725445 355.307058 
L 370.274555 356.988953 
L 372.823664 359.015774 
L 375.372773 356.493933 
L 377.921882 358.789638 
L 380.470991 358.012773 
L 383.020101 357.627841 
L 385.56921 357.623399 
L 388.118319 357.488228 
L 390.667428 355.450757 
L 393.216537 357.79015 
L 395.765646 357.269971 
L 398.314756 358.244338 
L 400.863865 358.225894 
L 403.412974 358.081791 
L 405.962083 359.264124 
L 408.511192 359.658415 
L 411.060302 361.208264 
L 413.609411 360.978283 
L 416.15852 361.136372 
L 418.707629 361.711448 
L 421.256738 361.068331 
L 423.805847 360.693731 
L 426.354957 361.385207 
L 428.904066 359.837106 
L 431.453175 358.97069 
L 434.002284 362.578305 
L 436.551393 360.111101 
L 439.100503 361.341579 
L 441.649612 360.430286 
L 444.198721 362.203926 
L 446.74783 361.047751 
L 449.296939 362.269774 
L 451.846048 362.34425 
L 454.395158 362.047653 
L 456.944267 361.386384 
L 459.493376 361.812981 
L 462.042485 361.779322 
L 464.591594 363.361069 
L 467.140704 363.640953 
L 469.689813 361.272521 
L 474.788031 363.011143 
L 477.33714 360.98067 
L 479.886249 362.074493 
L 484.984468 360.836703 
L 487.533577 358.942408 
L 490.082686 361.178213 
L 492.631795 361.248498 
L 495.180905 361.081199 
L 497.730014 363.761647 
L 500.279123 364.246159 
L 502.828232 362.877967 
L 505.377341 363.648759 
L 507.92645 363.330969 
L 515.573778 364.186506 
L 518.122887 365.226764 
L 520.671996 363.995768 
L 523.221106 366.557176 
L 525.770215 365.610222 
L 528.319324 365.084499 
L 530.868433 366.473952 
L 533.417542 365.141548 
L 535.966651 365.06642 
L 538.515761 365.943392 
L 543.613979 365.192697 
L 546.163088 366.080107 
L 548.712197 367.324535 
L 551.261307 364.846209 
L 553.810416 367.451455 
L 556.359525 365.907785 
L 561.457743 366.736761 
L 564.006852 366.494407 
L 566.555962 366.446864 
L 569.105071 367.622267 
L 574.203289 367.304106 
L 576.752398 366.690095 
L 579.301508 368.183559 
L 581.850617 367.792489 
L 584.399726 366.926213 
L 586.948835 366.867658 
L 589.497944 368.789983 
L 592.047053 367.716008 
L 597.145272 368.40909 
L 602.24349 368.224761 
L 604.792599 368.547778 
L 607.341709 368.10359 
L 609.890818 368.528127 
L 612.439927 368.672699 
L 617.538145 369.207586 
L 620.087254 368.694172 
L 622.636364 369.36 
L 622.636364 369.36 
" clip-path="url(#pe38568b1de)" style="fill: none; stroke: #2ca02c; stroke-width: 1.5; stroke-linecap: square"/>
   </g>
   <g id="line2d_18">
    <path d="M 115.363636 255.629034 
L 117.912746 272.71925 
L 120.461855 283.320799 
L 123.010964 285.749547 
L 125.560073 286.495368 
L 128.109182 288.850029 
L 130.658291 287.158286 
L 133.207401 294.522189 
L 135.75651 286.386677 
L 138.305619 290.701734 
L 140.854728 291.576929 
L 143.403837 292.165586 
L 145.952947 293.107403 
L 148.502056 291.283421 
L 151.051165 297.771646 
L 153.600274 297.968498 
L 156.149383 299.903386 
L 158.698492 298.431332 
L 161.247602 296.451543 
L 163.796711 297.504523 
L 166.34582 293.575844 
L 168.894929 302.955698 
L 171.444038 300.600603 
L 173.993148 303.920476 
L 176.542257 298.508643 
L 179.091366 306.238454 
L 181.640475 305.447269 
L 184.189584 305.645343 
L 186.738693 302.746576 
L 189.287803 303.860309 
L 191.836912 311.608896 
L 194.386021 313.213526 
L 196.93513 305.384536 
L 199.484239 305.360694 
L 202.033349 310.710893 
L 204.582458 308.002602 
L 207.131567 310.689511 
L 209.680676 312.89997 
L 212.229785 314.910141 
L 214.778894 314.652942 
L 217.328004 315.166575 
L 219.877113 314.260481 
L 222.426222 315.511186 
L 224.975331 309.2143 
L 230.07355 315.383662 
L 232.622659 310.172393 
L 235.171768 312.150034 
L 237.720877 313.355337 
L 240.269986 313.610059 
L 242.819095 317.109503 
L 245.368205 315.791098 
L 247.917314 316.06983 
L 250.466423 315.887171 
L 253.015532 317.986902 
L 255.564641 317.115698 
L 258.113751 317.188812 
L 260.66286 317.654479 
L 263.211969 320.097524 
L 265.761078 319.101613 
L 268.310187 320.512486 
L 270.859296 320.542106 
L 273.408406 319.617487 
L 275.957515 317.722547 
L 278.506624 319.046114 
L 281.055733 319.218127 
L 283.604842 322.079768 
L 286.153952 319.035906 
L 288.703061 319.315312 
L 291.25217 321.088953 
L 293.801279 320.81901 
L 296.350388 319.548221 
L 298.899497 317.823581 
L 301.448607 319.46377 
L 303.997716 320.300022 
L 306.546825 319.421212 
L 309.095934 319.359718 
L 311.645043 321.338625 
L 314.194153 320.895411 
L 316.743262 322.672992 
L 319.292371 321.405347 
L 321.84148 322.686346 
L 324.390589 321.579427 
L 326.939698 322.163277 
L 329.488808 321.233854 
L 332.037917 322.401898 
L 334.587026 323.170387 
L 337.136135 321.312198 
L 339.685244 323.11481 
L 342.234354 323.693028 
L 344.783463 322.78421 
L 347.332572 323.51699 
L 349.881681 321.583018 
L 352.43079 322.696227 
L 354.979899 321.587646 
L 357.529009 323.533731 
L 360.078118 324.64022 
L 362.627227 323.717221 
L 367.725445 323.911208 
L 370.274555 322.724553 
L 372.823664 323.233576 
L 375.372773 324.926409 
L 377.921882 323.542267 
L 380.470991 324.298755 
L 383.020101 324.270692 
L 385.56921 325.100965 
L 390.667428 322.839418 
L 393.216537 323.193509 
L 395.765646 325.268165 
L 398.314756 323.827912 
L 400.863865 325.151177 
L 403.412974 324.830086 
L 405.962083 324.953089 
L 408.511192 325.508673 
L 411.060302 325.798509 
L 413.609411 325.881976 
L 416.15852 326.379775 
L 418.707629 326.569534 
L 421.256738 326.416552 
L 423.805847 325.064522 
L 426.354957 325.618931 
L 428.904066 325.156586 
L 431.453175 326.229902 
L 434.002284 324.769857 
L 436.551393 327.689679 
L 439.100503 325.12578 
L 441.649612 325.960547 
L 444.198721 326.339629 
L 446.74783 327.05751 
L 449.296939 326.287787 
L 451.846048 327.148879 
L 454.395158 325.987594 
L 456.944267 326.973429 
L 459.493376 326.76996 
L 462.042485 326.914017 
L 464.591594 326.534469 
L 467.140704 326.935782 
L 469.689813 326.95443 
L 472.238922 325.433513 
L 474.788031 326.64031 
L 477.33714 325.320525 
L 479.886249 326.171062 
L 482.435359 324.015637 
L 484.984468 322.086828 
L 487.533577 327.285861 
L 490.082686 326.267522 
L 492.631795 326.450138 
L 495.180905 327.649933 
L 497.730014 326.767178 
L 500.279123 327.811241 
L 502.828232 327.360765 
L 505.377341 327.709544 
L 507.92645 326.789328 
L 510.47556 327.310164 
L 513.024669 327.454646 
L 515.573778 328.151978 
L 520.671996 328.706116 
L 523.221106 328.023753 
L 525.770215 328.640825 
L 530.868433 328.331294 
L 533.417542 328.740771 
L 535.966651 327.177014 
L 538.515761 328.393622 
L 543.613979 328.433289 
L 546.163088 328.165427 
L 548.712197 328.592071 
L 553.810416 329.063521 
L 556.359525 328.91468 
L 558.908634 328.984537 
L 561.457743 329.867562 
L 564.006852 329.370331 
L 566.555962 329.310347 
L 569.105071 329.477634 
L 574.203289 329.653381 
L 576.752398 330.00076 
L 579.301508 329.161541 
L 581.850617 330.031061 
L 586.948835 330.279065 
L 589.497944 329.260379 
L 592.047053 330.11969 
L 594.596163 329.582583 
L 597.145272 330.092381 
L 599.694381 329.743464 
L 602.24349 330.337685 
L 604.792599 330.209431 
L 607.341709 330.940139 
L 609.890818 330.154708 
L 612.439927 330.557824 
L 614.989036 330.103034 
L 617.538145 331.002439 
L 622.636364 330.4252 
L 622.636364 330.4252 
" clip-path="url(#pe38568b1de)" style="fill: none; stroke: #ffa500; stroke-width: 1.5; stroke-linecap: square"/>
   </g>
   <g id="patch_3">
    <path d="M 90 384.48 
L 90 51.84 
" style="fill: none; stroke: #000000; stroke-width: 0.8; stroke-linejoin: miter; stroke-linecap: square"/>
   </g>
   <g id="patch_4">
    <path d="M 90 384.48 
L 648 384.48 
" style="fill: none; stroke: #000000; stroke-width: 0.8; stroke-linejoin: miter; stroke-linecap: square"/>
   </g>
   <g id="text_18">
    <!-- Training Losses over Epochs -->
    <g transform="translate(284.750625 45.84) scale(0.12 -0.12)">
     <defs>
      <path id="DejaVuSans-54" d="M -19 4666 
L 3928 4666 
L 3928 4134 
L 2272 4134 
L 2272 0 
L 1638 0 
L 1638 4134 
L -19 4134 
L -19 4666 
z
" transform="scale(0.015625)"/>
      <path id="DejaVuSans-72" d="M 2631 2963 
Q 2534 3019 2420 3045 
Q 2306 3072 2169 3072 
Q 1681 3072 1420 2755 
Q 1159 2438 1159 1844 
L 1159 0 
L 581 0 
L 581 3500 
L 1159 3500 
L 1159 2956 
Q 1341 3275 1631 3429 
Q 1922 3584 2338 3584 
Q 2397 3584 2469 3576 
Q 2541 3569 2628 3553 
L 2631 2963 
z
" transform="scale(0.015625)"/>
      <path id="DejaVuSans-61" d="M 2194 1759 
Q 1497 1759 1228 1600 
Q 959 1441 959 1056 
Q 959 750 1161 570 
Q 1363 391 1709 391 
Q 2188 391 2477 730 
Q 2766 1069 2766 1631 
L 2766 1759 
L 2194 1759 
z
M 3341 1997 
L 3341 0 
L 2766 0 
L 2766 531 
Q 2569 213 2275 61 
Q 1981 -91 1556 -91 
Q 1019 -91 701 211 
Q 384 513 384 1019 
Q 384 1609 779 1909 
Q 1175 2209 1959 2209 
L 2766 2209 
L 2766 2266 
Q 2766 2663 2505 2880 
Q 2244 3097 1772 3097 
Q 1472 3097 1187 3025 
Q 903 2953 641 2809 
L 641 3341 
Q 956 3463 1253 3523 
Q 1550 3584 1831 3584 
Q 2591 3584 2966 3190 
Q 3341 2797 3341 1997 
z
" transform="scale(0.015625)"/>
      <path id="DejaVuSans-69" d="M 603 3500 
L 1178 3500 
L 1178 0 
L 603 0 
L 603 3500 
z
M 603 4863 
L 1178 4863 
L 1178 4134 
L 603 4134 
L 603 4863 
z
" transform="scale(0.015625)"/>
      <path id="DejaVuSans-6e" d="M 3513 2113 
L 3513 0 
L 2938 0 
L 2938 2094 
Q 2938 2591 2744 2837 
Q 2550 3084 2163 3084 
Q 1697 3084 1428 2787 
Q 1159 2491 1159 1978 
L 1159 0 
L 581 0 
L 581 3500 
L 1159 3500 
L 1159 2956 
Q 1366 3272 1645 3428 
Q 1925 3584 2291 3584 
Q 2894 3584 3203 3211 
Q 3513 2838 3513 2113 
z
" transform="scale(0.015625)"/>
      <path id="DejaVuSans-67" d="M 2906 1791 
Q 2906 2416 2648 2759 
Q 2391 3103 1925 3103 
Q 1463 3103 1205 2759 
Q 947 2416 947 1791 
Q 947 1169 1205 825 
Q 1463 481 1925 481 
Q 2391 481 2648 825 
Q 2906 1169 2906 1791 
z
M 3481 434 
Q 3481 -459 3084 -895 
Q 2688 -1331 1869 -1331 
Q 1566 -1331 1297 -1286 
Q 1028 -1241 775 -1147 
L 775 -588 
Q 1028 -725 1275 -790 
Q 1522 -856 1778 -856 
Q 2344 -856 2625 -561 
Q 2906 -266 2906 331 
L 2906 616 
Q 2728 306 2450 153 
Q 2172 0 1784 0 
Q 1141 0 747 490 
Q 353 981 353 1791 
Q 353 2603 747 3093 
Q 1141 3584 1784 3584 
Q 2172 3584 2450 3431 
Q 2728 3278 2906 2969 
L 2906 3500 
L 3481 3500 
L 3481 434 
z
" transform="scale(0.015625)"/>
      <path id="DejaVuSans-20" transform="scale(0.015625)"/>
      <path id="DejaVuSans-65" d="M 3597 1894 
L 3597 1613 
L 953 1613 
Q 991 1019 1311 708 
Q 1631 397 2203 397 
Q 2534 397 2845 478 
Q 3156 559 3463 722 
L 3463 178 
Q 3153 47 2828 -22 
Q 2503 -91 2169 -91 
Q 1331 -91 842 396 
Q 353 884 353 1716 
Q 353 2575 817 3079 
Q 1281 3584 2069 3584 
Q 2775 3584 3186 3129 
Q 3597 2675 3597 1894 
z
M 3022 2063 
Q 3016 2534 2758 2815 
Q 2500 3097 2075 3097 
Q 1594 3097 1305 2825 
Q 1016 2553 972 2059 
L 3022 2063 
z
" transform="scale(0.015625)"/>
      <path id="DejaVuSans-76" d="M 191 3500 
L 800 3500 
L 1894 563 
L 2988 3500 
L 3597 3500 
L 2284 0 
L 1503 0 
L 191 3500 
z
" transform="scale(0.015625)"/>
     </defs>
     <use xlink:href="#DejaVuSans-54"/>
     <use xlink:href="#DejaVuSans-72" x="46.333984"/>
     <use xlink:href="#DejaVuSans-61" x="87.447266"/>
     <use xlink:href="#DejaVuSans-69" x="148.726562"/>
     <use xlink:href="#DejaVuSans-6e" x="176.509766"/>
     <use xlink:href="#DejaVuSans-69" x="239.888672"/>
     <use xlink:href="#DejaVuSans-6e" x="267.671875"/>
     <use xlink:href="#DejaVuSans-67" x="331.050781"/>
     <use xlink:href="#DejaVuSans-20" x="394.527344"/>
     <use xlink:href="#DejaVuSans-4c" x="426.314453"/>
     <use xlink:href="#DejaVuSans-6f" x="480.277344"/>
     <use xlink:href="#DejaVuSans-73" x="541.458984"/>
     <use xlink:href="#DejaVuSans-73" x="593.558594"/>
     <use xlink:href="#DejaVuSans-65" x="645.658203"/>
     <use xlink:href="#DejaVuSans-73" x="707.181641"/>
     <use xlink:href="#DejaVuSans-20" x="759.28125"/>
     <use xlink:href="#DejaVuSans-6f" x="791.068359"/>
     <use xlink:href="#DejaVuSans-76" x="852.25"/>
     <use xlink:href="#DejaVuSans-65" x="911.429688"/>
     <use xlink:href="#DejaVuSans-72" x="972.953125"/>
     <use xlink:href="#DejaVuSans-20" x="1014.066406"/>
     <use xlink:href="#DejaVuSans-45" x="1045.853516"/>
     <use xlink:href="#DejaVuSans-70" x="1109.037109"/>
     <use xlink:href="#DejaVuSans-6f" x="1172.513672"/>
     <use xlink:href="#DejaVuSans-63" x="1233.695312"/>
     <use xlink:href="#DejaVuSans-68" x="1288.675781"/>
     <use xlink:href="#DejaVuSans-73" x="1352.054688"/>
    </g>
   </g>
   <g id="legend_1">
    <g id="patch_5">
     <path d="M 558.7125 104.70875 
L 641 104.70875 
Q 643 104.70875 643 102.70875 
L 643 58.84 
Q 643 56.84 641 56.84 
L 558.7125 56.84 
Q 556.7125 56.84 556.7125 58.84 
L 556.7125 102.70875 
Q 556.7125 104.70875 558.7125 104.70875 
z
" style="fill: #ffffff; opacity: 0.8; stroke: #cccccc; stroke-linejoin: miter"/>
    </g>
    <g id="line2d_19">
     <path d="M 560.7125 64.938438 
L 570.7125 64.938438 
L 580.7125 64.938438 
" style="fill: none; stroke: #1f77b4; stroke-width: 1.5; stroke-linecap: square"/>
    </g>
    <g id="text_19">
     <!-- Total_Loss -->
     <g transform="translate(588.7125 68.438438) scale(0.1 -0.1)">
      <defs>
       <path id="DejaVuSans-74" d="M 1172 4494 
L 1172 3500 
L 2356 3500 
L 2356 3053 
L 1172 3053 
L 1172 1153 
Q 1172 725 1289 603 
Q 1406 481 1766 481 
L 2356 481 
L 2356 0 
L 1766 0 
Q 1100 0 847 248 
Q 594 497 594 1153 
L 594 3053 
L 172 3053 
L 172 3500 
L 594 3500 
L 594 4494 
L 1172 4494 
z
" transform="scale(0.015625)"/>
       <path id="DejaVuSans-6c" d="M 603 4863 
L 1178 4863 
L 1178 0 
L 603 0 
L 603 4863 
z
" transform="scale(0.015625)"/>
       <path id="DejaVuSans-5f" d="M 3263 -1063 
L 3263 -1509 
L -63 -1509 
L -63 -1063 
L 3263 -1063 
z
" transform="scale(0.015625)"/>
      </defs>
      <use xlink:href="#DejaVuSans-54"/>
      <use xlink:href="#DejaVuSans-6f" x="44.083984"/>
      <use xlink:href="#DejaVuSans-74" x="105.265625"/>
      <use xlink:href="#DejaVuSans-61" x="144.474609"/>
      <use xlink:href="#DejaVuSans-6c" x="205.753906"/>
      <use xlink:href="#DejaVuSans-5f" x="233.537109"/>
      <use xlink:href="#DejaVuSans-4c" x="283.537109"/>
      <use xlink:href="#DejaVuSans-6f" x="337.5"/>
      <use xlink:href="#DejaVuSans-73" x="398.681641"/>
      <use xlink:href="#DejaVuSans-73" x="450.78125"/>
     </g>
    </g>
    <g id="line2d_20">
     <path d="M 560.7125 79.894688 
L 570.7125 79.894688 
L 580.7125 79.894688 
" style="fill: none; stroke: #2ca02c; stroke-width: 1.5; stroke-linecap: square"/>
    </g>
    <g id="text_20">
     <!-- Dice_Loss -->
     <g transform="translate(588.7125 83.394688) scale(0.1 -0.1)">
      <defs>
       <path id="DejaVuSans-44" d="M 1259 4147 
L 1259 519 
L 2022 519 
Q 2988 519 3436 956 
Q 3884 1394 3884 2338 
Q 3884 3275 3436 3711 
Q 2988 4147 2022 4147 
L 1259 4147 
z
M 628 4666 
L 1925 4666 
Q 3281 4666 3915 4102 
Q 4550 3538 4550 2338 
Q 4550 1131 3912 565 
Q 3275 0 1925 0 
L 628 0 
L 628 4666 
z
" transform="scale(0.015625)"/>
      </defs>
      <use xlink:href="#DejaVuSans-44"/>
      <use xlink:href="#DejaVuSans-69" x="77.001953"/>
      <use xlink:href="#DejaVuSans-63" x="104.785156"/>
      <use xlink:href="#DejaVuSans-65" x="159.765625"/>
      <use xlink:href="#DejaVuSans-5f" x="221.289062"/>
      <use xlink:href="#DejaVuSans-4c" x="271.289062"/>
      <use xlink:href="#DejaVuSans-6f" x="325.251953"/>
      <use xlink:href="#DejaVuSans-73" x="386.433594"/>
      <use xlink:href="#DejaVuSans-73" x="438.533203"/>
     </g>
    </g>
    <g id="line2d_21">
     <path d="M 560.7125 94.850938 
L 570.7125 94.850938 
L 580.7125 94.850938 
" style="fill: none; stroke: #ffa500; stroke-width: 1.5; stroke-linecap: square"/>
    </g>
    <g id="text_21">
     <!-- BCE_Loss -->
     <g transform="translate(588.7125 98.350938) scale(0.1 -0.1)">
      <defs>
       <path id="DejaVuSans-42" d="M 1259 2228 
L 1259 519 
L 2272 519 
Q 2781 519 3026 730 
Q 3272 941 3272 1375 
Q 3272 1813 3026 2020 
Q 2781 2228 2272 2228 
L 1259 2228 
z
M 1259 4147 
L 1259 2741 
L 2194 2741 
Q 2656 2741 2882 2914 
Q 3109 3088 3109 3444 
Q 3109 3797 2882 3972 
Q 2656 4147 2194 4147 
L 1259 4147 
z
M 628 4666 
L 2241 4666 
Q 2963 4666 3353 4366 
Q 3744 4066 3744 3513 
Q 3744 3084 3544 2831 
Q 3344 2578 2956 2516 
Q 3422 2416 3680 2098 
Q 3938 1781 3938 1306 
Q 3938 681 3513 340 
Q 3088 0 2303 0 
L 628 0 
L 628 4666 
z
" transform="scale(0.015625)"/>
       <path id="DejaVuSans-43" d="M 4122 4306 
L 4122 3641 
Q 3803 3938 3442 4084 
Q 3081 4231 2675 4231 
Q 1875 4231 1450 3742 
Q 1025 3253 1025 2328 
Q 1025 1406 1450 917 
Q 1875 428 2675 428 
Q 3081 428 3442 575 
Q 3803 722 4122 1019 
L 4122 359 
Q 3791 134 3420 21 
Q 3050 -91 2638 -91 
Q 1578 -91 968 557 
Q 359 1206 359 2328 
Q 359 3453 968 4101 
Q 1578 4750 2638 4750 
Q 3056 4750 3426 4639 
Q 3797 4528 4122 4306 
z
" transform="scale(0.015625)"/>
      </defs>
      <use xlink:href="#DejaVuSans-42"/>
      <use xlink:href="#DejaVuSans-43" x="66.853516"/>
      <use xlink:href="#DejaVuSans-45" x="136.677734"/>
      <use xlink:href="#DejaVuSans-5f" x="199.861328"/>
      <use xlink:href="#DejaVuSans-4c" x="249.861328"/>
      <use xlink:href="#DejaVuSans-6f" x="303.824219"/>
      <use xlink:href="#DejaVuSans-73" x="365.005859"/>
      <use xlink:href="#DejaVuSans-73" x="417.105469"/>
     </g>
    </g>
   </g>
  </g>
 </g>
 <defs>
  <clipPath id="pe38568b1de">
   <rect x="90" y="51.84" width="558" height="332.64"/>
  </clipPath>
 </defs>
</svg>
